<svg xmlns="http://www.w3.org/2000/svg" viewBox="0 0 533.5 544.3">
  <path fill="#4285F4" d="M533.5 278.4c0-17.4-1.6-34.1-4.6-50.4H272v95.3h146.9c-6.3 34-25.2 62.8-53.6 82.1v68.1h86.7c50.7-46.7 81.5-115.6 81.5-195.1z"/>
  <path fill="#34A853" d="M272 544.3c72.6 0 133.6-24.1 178.2-65.5l-86.7-68.1c-24.1 16.1-55 25.6-91.5 25.6-70.4 0-130.1-47.6-151.4-111.4H31.1v69.9c44.3 88 135.2 149.5 240.9 149.5z"/>
  <path fill="#FBBC05" d="M120.6 324.9c-10.6-31.7-10.6-66 0-97.7V157.3H31.1c-37.2 73.9-37.2 161.6 0 235.5l89.5-67.9z"/>
  <path fill="#EA4335" d="M272 107.7c39.5-.6 77.6 14 106.7 40.9l79.6-79.6C411.9 24.2 347.2-1.2 272 0 166.3 0 75.4 61.5 31.1 149.5l89.5 69.9C141.9 155.3 201.6 107.7 272 107.7z"/>
</svg>
