<svg xmlns="http://www.w3.org/2000/svg" viewBox="0 0 700 550">
  <g fill="rgb(244,100,100)" stroke="rgb(244,100,100)" stroke-width="1" opacity="0.5">
    <path d="M599.5 445 L604 445.5 L599.5 446 Z"/>
    <path d="M590.5 446 L591 447.5 L589.5 450 L589 448.5 Z"/>
    <path d="M605.5 446 Q612.5 444.5 614 448.5 L612.5 453 L613 448.5 Q611.5 445.5 605.5 447 Z"/>
    <path d="M313.5 447 L314 448.5 L312.5 451 L312 449.5 Z"/>
    <path d="M660.5 447 L664 448.5 L663.5 450 L659 449.5 Q651.753 466.753 639.5 479 L631.5 483 L645 471.5 Z"/>
    <path d="M118.5 448 L111.5 463 L112.5 459 Z"/>
    <path d="M219.5 448 L218.5 453 L218 450.5 Z"/>
    <path d="M539.5 448 L540 449.5 Q536.875 454.875 529.5 456 Z"/>
    <path d="M576.5 448 L577 449.5 L573.5 455 Z"/>
    <path d="M191.5 449 L192 451.5 L191 451.5 Z"/>
    <path d="M281.5 449 L282 452.5 L281 452.5 Z"/>
    <path d="M483.5 449 L484 451.5 L483 451.5 Z"/>
    <path d="M560.5 449 L561 451.5 L560 451.5 Z"/>
    <path d="M638.5 449 L639 450.5 L636.5 456 L636 454.5 Z"/>
    <path d="M385.5 450 L386 463.5 L385 463.5 Z"/>
    <path d="M477.5 450 L478 452.5 L477 452.5 Z"/>
    <path d="M409.5 451 L410 453.5 L409 453.5 Z"/>
    <path d="M588.5 451 L589 452.5 L586.5 457 L586 455.5 Z"/>
    <path d="M664.5 451 L665 454.5 L664 454.5 Z"/>
    <path d="M254.5 452 L255 454.5 L254 454.5 Z"/>
    <path d="M311.5 452 L312 456.5 L311 456.5 Z"/>
    <path d="M380.5 452 L381 465.5 L380 465.5 Z"/>
    <path d="M174.5 453 L175 471.5 L174 471.5 Z"/>
    <path d="M352.5 453 L353 464.5 L352 464.5 Z"/>
    <path d="M482.5 453 L483 465.5 L482 465.5 Z"/>
    <path d="M559.5 453 L560 454.5 L558 455.5 Z"/>
    <path d="M190.5 454 L191 463.5 L190 463.5 Z"/>
    <path d="M217.5 454 L218 463.5 L217 463.5 Z"/>
    <path d="M282.5 454 L283 463.5 L282 463.5 Z"/>
    <path d="M450.5 454 L451 463.5 L450 463.5 Z"/>
    <path d="M478.5 454 L479 463.5 L478 463.5 Z"/>
  </g>
</svg>
