<svg xmlns="http://www.w3.org/2000/svg" viewBox="87 64 578 520" width="578" height="520">
  <path fill="rgb(247,102,101)" stroke="rgb(247,102,101)" stroke-width="1" opacity="0.9647058823529412" d="M 465.5 64 Q 482.389 65.611 489 77.5 Q 509.97 108.03 504 165.5 L 503 170.5 L 529 193.5 Q 544.817 203.683 545 229.5 Q 542.875 239.375 535.5 244 Q 521.037 254.734 500 258 L 501 262.5 Q 517.771 279.229 531 299.5 Q 538.787 310.213 539 328.5 Q 538.125 335.125 533.5 338 L 524.5 339 Q 510 334 502 322.5 Q 485.042 296.958 463.5 276 Q 435.846 249.154 398.5 232 Q 370.232 217.768 327.5 218 Q 291.181 220.181 265.5 233 L 239.5 247 Q 220.728 258.228 205.5 273 L 200.5 274 L 196 270.5 Q 193.75 265.75 195 257.5 Q 209.025 215.525 240.5 191 L 261 175 Q 262 171 252.5 173 Q 241.217 171.283 236 163.5 Q 229.594 157.406 231 143.5 Q 234.136 129.136 244.5 122 Q 256.307 109.807 279.5 109 L 282 110 Q 288 119.5 286 137 Q 310.219 122.893 351.5 125 Q 378.807 128.693 398.5 140 Q 429.062 156.938 452.5 181 L 456.5 181 L 460 178.5 Q 447.3 155.2 431 135.5 L 424 122.5 Q 416.378 108.122 417 85.5 Q 417.875 77.375 422.5 73 L 428.5 71 Q 438.159 75.341 444 83.5 Q 465.934 120.685 477 168 L 484 167 Q 477.19 133.329 465 103.5 L 461 74.5 Q 460.437 66.438 465.5 64 Z"/>
  <path fill="rgb(247,102,101)" stroke="rgb(247,102,101)" stroke-width="1" opacity="0.9647058823529412" d="M 99.5 334 Q 109.932 332.568 113 338.5 Q 117.765 365.735 115 400.5 L 114 401.5 Q 114.788 431.788 112 458.5 L 113 458.5 Q 121.563 437.063 137.5 423 Q 144.085 416.085 157.5 416 Q 165.295 417.205 169 422.5 L 174 437.5 L 175 473.5 Q 175.625 479.375 179.5 482 Q 189.4 481.4 193 474.5 Q 189.036 466.964 190 454.5 Q 193.381 435.381 206.5 426 Q 218.096 416.096 239.5 416 Q 262.94 418.56 274 433.5 Q 283.7 443.3 283 463.5 Q 279.899 480.899 268.5 490 Q 255.835 503.335 227.5 501 Q 211.066 497.434 201.5 487 L 195.5 494 Q 187.95 503.45 168.5 501 L 157 494.5 L 151 482.5 Q 148 469.5 149 452.5 Q 148.646 445.854 144.5 443 Q 133.917 443.917 131 452.5 Q 116.865 473.763 109 500 Q 105.062 502.375 95.5 501 L 92 498.5 Q 82.913 439.087 87 366.5 L 88 365.5 L 89 342.5 L 91.5 338 L 99.5 334 Z M 235 436 L 228 439 Q 220 444 218 454 Q 216 468 223 475 L 233 481 Q 242 482 247 478 Q 253 473 255 463 Q 256 450 250 444 Q 246 436 235 436 Z"/>
  <path fill="rgb(247,102,101)" stroke="rgb(247,102,101)" stroke-width="1" opacity="0.9647058823529412" d="M 582.5 402 Q 589.972 402.528 593 407.5 Q 597.2 412.612 596 422 Q 610.208 426.917 631.5 426 L 640 432.5 L 641 444.5 Q 632.194 460.194 628 480.5 Q 629.75 484.75 631.5 482 Q 641.85 480.35 645 471.5 L 660.5 447 L 664 448.5 Q 666.875 455.125 665 466.5 Q 657.283 485.283 642.5 497 Q 636.017 502.517 624.5 503 Q 612.48 502.02 607 494.5 Q 601.615 488.885 603 476.5 Q 606.284 462.284 613 451.5 L 613 448.5 L 611.5 447 Q 599.938 447.563 592.5 444 Q 583.373 471.873 564.5 490 Q 552.199 504.199 523.5 502 Q 502.68 499.32 492 486.5 Q 480.822 476.178 482 453.5 Q 485.854 434.854 499.5 426 Q 510.814 415.814 533.5 417 Q 548.233 418.767 556 427.5 Q 562.56 433.94 562 447.5 Q 560.125 459.125 551.5 464 Q 540.571 472.571 518.5 470 L 511.5 468 L 512 469.5 L 516.5 477 Q 523.333 484.167 539.5 482 Q 556.24 478.74 565 467.5 Q 575.2 455.2 580 437.5 Q 570.265 431.735 571 415.5 Q 572.477 406.977 578.5 403 L 582.5 402 Z M 528 436 Q 520 437 517 441 Q 510 446 510 456 L 515 457 Q 528 458 536 453 L 540 448 L 539 442 Q 536 436 528 436 Z"/>
  <path fill="rgb(247,102,101)" stroke="rgb(247,102,101)" stroke-width="1" opacity="0.9647058823529412" d="M 294.5 416 Q 304.583 413.917 308 418.5 Q 306.75 424.583 309.5 424 Q 319.042 415.542 337.5 416 Q 360.066 418.434 371 432.5 Q 382.546 442.454 381 465.5 Q 377.329 483.329 364.5 492 Q 352.312 503.312 326.5 501 L 313.5 496 L 313 498.5 Q 317.417 535.083 315 578.5 Q 311.311 583.311 303.5 584 Q 295.214 582.786 291 577.5 Q 284.217 535.783 286 485.5 L 287 484.5 Q 286.067 454.567 289 428.5 Q 288.458 420.458 292.5 417 L 294.5 416 Z M 332 436 Q 323 437 318 442 Q 312 447 311 458 Q 311 467 315 473 Q 319 479 328 481 Q 338 483 343 479 Q 350 475 352 466 Q 354 449 347 443 Q 342 436 332 436 Z"/>
  <path fill="rgb(247,102,101)" stroke="rgb(247,102,101)" stroke-width="1" opacity="0.9647058823529412" d="M 392.5 416 Q 403.5 413.5 406 419.5 L 406.5 424 Q 416.347 415.347 435.5 416 Q 459.833 419.167 471 435.5 Q 479.458 445.042 479 463.5 Q 475.899 480.899 464.5 490 Q 452.134 503.134 424.5 501 Q 416.425 500.075 411.5 496 L 411 506.5 Q 415.087 537.913 413 575.5 L 408.5 582 L 401.5 584 L 389 579 Q 380.421 532.678 384 472.5 L 385 471.5 Q 384.222 446.722 387 425.5 Q 386.607 419.107 390.5 417 L 392.5 416 Z M 429 436 L 418 440 Q 411 445 409 455 Q 408 469 414 475 Q 418 480 426 481 Q 435 482 441 479 Q 448 474 450 465 Q 452 451 446 445 Q 442 436 429 436 Z"/>
</svg>
