<svg xmlns="http://www.w3.org/2000/svg" viewBox="0 0 758 648" role="img" aria-label="Logo">
  <path fill="currentColor" d="M 465.5 65 Q 481.563 66.438 488 77.5 Q 505.817 103.183 504 148.5 L 503 149.5 Q 505.25 162.75 502 170.5 L 534 200.5 Q 544.514 209.986 544 230.5 L 536.5 242 Q 521.125 253.625 499 258.5 L 502 265.5 Q 517.768 280.732 530 299.5 Q 538 310.5 538 329.5 L 534.5 336 Q 531.5 339 524.5 338 Q 511.989 334.011 505 324.5 Q 485.402 295.598 460.5 272 Q 432.359 245.141 393.5 229 Q 363.518 214.982 316.5 218 Q 287.639 221.639 265.5 232 L 242.5 244 Q 222.086 256.086 205.5 272 L 200.5 273 L 197 270.5 Q 194.625 265.375 196 256.5 Q 209.132 218.132 237.5 195 L 262 174.5 Q 262.75 172.25 260.5 173 Q 244.075 172.925 237 163.5 Q 230.438 157.063 232 142.5 Q 234.845 132.162 241 126 Q 253.259 111.414 279.5 110 Q 287.845 119.366 286 138 Q 310.572 123.751 352.5 126 Q 379.398 129.602 398.5 141 Q 428.246 157.254 450.5 181 L 456.5 182 L 461 178.5 L 456 168.5 Q 438.234 147.766 425 122.5 Q 416.946 108.054 418 84.5 Q 419.477 75.977 425.5 72 Q 436.332 73.668 441 81.5 Q 449.4 90.6 454 103.5 L 477 169 L 485 167 Q 478.352 131.12 465 99.5 Q 461.478 87.522 462 71.5 Q 462.25 66.75 465.5 65 Z"/>
  <path fill="currentColor" d="M 99.5 335 Q 109.932 333.568 113 339.5 Q 116.545 369.455 114 405.5 L 113 406.5 Q 113.706 436.206 111 462.5 L 113 461.5 Q 121.064 439.564 136.5 425 Q 143.5 417 158.5 417 L 167 421.5 Q 178.002 439.498 174 472.5 Q 174.528 479.972 179.5 483 Q 190.2 482.2 194 474.5 Q 189.731 466.769 191 453.5 Q 194.26 436.76 205.5 428 Q 217.176 416.176 241.5 417 Q 261.585 419.915 272 432.5 Q 283 442.5 282 464.5 Q 278.146 483.146 264.5 492 Q 254 501 234.5 501 Q 212.4 499.1 201.5 486 Q 193.622 499.122 174.5 501 Q 161.544 499.956 156 491.5 Q 146.962 475.038 149 447.5 L 144.5 442 Q 136.983 442.483 134 447.5 Q 116.195 469.695 106.5 500 L 99.5 501 Q 93.917 501.083 92 497.5 Q 85.43 447.57 87 389.5 Q 86.079 360.271 91 339 L 99.5 335 Z M 232 436 L 228 438 Q 219 443 217 454 Q 216 467 221 474 Q 225 479 233 482 Q 242 483 247 479 Q 255 473 256 461 Q 256 449 251 444 Q 247 434 232 436 Z"/>
  <path fill="currentColor" d="M 581.5 403 Q 588.96 403.04 592 407.5 Q 596 413.75 596 423 Q 610.502 427.66 631.5 427 L 639 432.5 Q 641.667 436.333 640 444.5 Q 630.862 459.862 627 480.5 L 628 483 Q 638.923 483.312 643 475.5 Q 653.375 463.089 660 448 Q 664.125 446.333 663 450.5 L 665 460.5 Q 659.133 483.633 642.5 496 Q 635.652 502.152 622.5 502 Q 613.05 500.45 608 494.5 Q 602.615 488.885 604 476.5 Q 606.595 463.095 613 453.5 L 614 447 L 591 443 Q 583.538 468.583 568 486 Q 555.287 503.629 521.5 501 Q 500.147 497.353 490 482.5 Q 480.87 473.13 483 452.5 Q 487.021 435.521 499.5 427 Q 511.118 416.618 534.5 418 Q 550.455 420.545 558 431.5 Q 562.227 437.273 561 448.5 Q 558.875 458.375 551.5 463 Q 542.167 470.167 525.5 470 L 510 467 Q 511.477 474.818 517.5 479 Q 524.429 484.571 538.5 483 Q 556.854 479.854 566 467.5 Q 578.312 455.583 581 436 L 577 433.5 Q 571.059 427.441 572 414.5 Q 573.55 407.55 578.5 404 L 581.5 403 Z M 524 436 L 518 439 Q 510 444 509 456 L 516 458 Q 531 459 539 452 L 541 448 L 539 440 Q 535 434 524 436 Z"/>
  <path fill="currentColor" d="M 298.5 416 L 307 418 L 308 425 Q 318.405 416.09 339.5 417 Q 362.12 420.88 373 436.5 Q 382.13 445.87 380 466.5 Q 376.357 481.857 365.5 490 Q 354.247 500.247 333.5 501 Q 321.024 500.476 313.5 495 L 313 516.5 L 314 517.5 L 315 560.5 L 314 561.5 L 314 578.5 L 312.5 580 Q 309.667 583.667 302.5 583 L 291 576.5 Q 285.103 531.397 287 478.5 L 288 477.5 Q 287.172 450.172 290 426.5 Q 289.188 420.188 292.5 418 L 298.5 416 Z M 327 436 L 319 440 Q 313 444 311 453 Q 309 466 314 473 Q 319 480 329 482 Q 341 484 346 478 Q 351 473 353 465 Q 355 449 348 443 Q 343 434 327 436 Z"/>
  <path fill="currentColor" d="M 395.5 416 Q 402.688 415.313 405 419.5 Q 403.75 425.583 406.5 425 Q 416.642 416.142 436.5 417 Q 459.047 420.453 470 435.5 Q 479.01 444.99 478 464.5 Q 474.146 483.146 460.5 492 Q 450.098 500.598 431.5 501 Q 418.25 500 410 495 Q 413.656 532.93 412 577.5 Q 408.861 582.861 400.5 583 Q 392.705 581.795 389 576.5 Q 382.292 526.708 385 467.5 L 386 466.5 Q 385.269 443.269 388 423.5 Q 388.25 418.75 391.5 417 L 395.5 416 Z M 425 436 L 418 439 Q 410 444 408 456 Q 408 468 413 475 Q 417 480 426 482 Q 435 483 441 480 Q 449 475 451 464 Q 452 451 447 445 Q 443 433 425 436 Z"/>
</svg>
